<svg xmlns="http://www.w3.org/2000/svg" xmlns:xlink="http://www.w3.org/1999/xlink" version="1.1" x="0px" y="0px" width="80.642px" height="81.514px" viewBox="0 0 80.642 81.514" enable-background="new 0 0 80.642 81.514" xml:space="preserve"><style>.style0{clip-rule:	evenodd;fill-rule:	evenodd;}</style><g><g><path d="M38.8 0.111c-3.147 1.29-3.035 5.84-7.798 5.5 c0.509-1.402 2.23-1.608 3.233-2.663C35.27 1.9 36.314-0.544 38.8 0.111z" class="style0"/><path d="M34.235 1.062c-0.204 1.155-1.319 1.407-2.093 2.3 c-2.11 2.391-3.679 5.688-6.656 7.418c0.206-1.414 1.557-2.428 2.473-3.804C29.588 4.5 30.8 1.8 34.2 1.062z" class="style0"/><path d="M51.353 3.534c-1.782 2.174-6.759 0.575-10.65 1 c-2.735 0.265-4.758 1.549-7.038 1.522c2.244-1.875 4.026-3.426 7.038-3.614C44.241 2.2 47.6 4.7 51.4 3.534z" class="style0"/><path d="M47.739 6.197c2.887 1.5 6.3 0.3 9.7 0.2 c0.702-0.029 2.083-0.423 2.5 0.571c-2.783 0.223-4.894 2.545-7.797 1.902C50.512 8.5 48.8 7.5 47.7 6.197z" class="style0"/><path d="M1.902 55.077c0.942-1.148 1.67-2.514 2.092-4.184 c0.873 1.634-0.525 3.272-0.381 5.325c0.977-1.177 1.562-2.749 2.093-4.374c0.178 0.1 0.3 0.3 0.4 0.6 c2.154-4.501 3.711-9.603 3.613-16.356c0.82 0.9 0.7 2.8 0.8 4.374c1.358-2.191 2.213-4.888 3.613-7.038 c-0.008 3.164-1.293 6.696-3.424 8.37c-0.523 4.104-1.715 7.54-3.232 10.65c0.171 0.5 0.425-0.577 0.8 0 c0.108 1.756-0.266 3.031-1.522 3.423c-0.16-0.474-0.249-1.018-0.19-1.711c-1.162 1 0.1 2.6 0.2 4 c0.132 0.5 0.507-0.354 0.951-0.191c-0.122 1.223-0.599 1.8 0 2.854c0.244 0.5 0.393-0.6 0.95-0.381 c0.413 1.149-0.467 2.6 0.6 3.232c0.469-0.544 0.456-1.572 1.331-1.711c0.05 1.129-0.018 2.139-0.381 2.9 c0.496 1.1 1.5 1.7 2.5 2.282c0.272-0.234 0.36-0.654 0.381-1.141c0.88 0.3 0.5 1.8 0.9 2.5 c0.759-0.257 0.191-1.839 1.142-1.903c0.526 1.417-0.517 3.2 1.1 3.423c0.424-0.717 0.882-1.401 1.142-2.282 c0.853 0.6 0.6 2.4 0.2 3.233c0.506 0.5 0.666-0.141 1.141-0.19c0.034 0.6 0.1 1.1 0.8 1.1 c0.478-0.409 0.112-1.662 0.951-1.712c0.274 0.6 0.2 1.6 0.2 2.473c0.669 0.5 1.5 0.9 2.3 1.3 c0.538-0.286 0.662-0.986 0.761-1.712c0.817 0.3 0.5 1.2 0.4 2.093c0.073 0.6 0.9 0.4 1.1 0.8 c-0.006-0.792 0.441-2.025 1.142-2.663c1.046 0.3 0.8 2.2 0.2 2.853c0.322 0.4 0.9 0.5 1.5 0.6 c0.923 0 0.599-1.177 1.521-1.142c0.081 0.616-0.251 1.6 0.4 1.712c1.313-0.144 1.085-1.833 2.282-2.092 c0.396 0.8 0.3 1.3 0.2 2.282c-0.086 0.5 1.037-0.149 1 0.381c0.585-0.302 0.286-1.489 0.951-1.712 c1.085 0.1 0.1 2.3 1.7 1.902c0.524-0.491 0.459-1.571 0.571-2.473c1.298-0.03 0.9 1.6 1.1 2.7 c0.316 0 0.6 0 0.9 0c0.429-0.143 0.075-1.067 0.19-1.522c1.001-0.114 0.9 0.9 1.1 1.5 c1.52-0.002 3.1 0.1 4.374-0.191c0.092-0.601-0.344-0.671-0.191-1.331c0.959-0.006 0.5 1.4 1.7 1.1 c0.592-0.364-0.297-0.826-0.191-1.332c0.685 0.2 1.2 0.6 1.5 1.141c0.441-0.255 1.081-0.314 1.521-0.571 c0.149-0.783-0.292-0.975-0.189-1.711c1.012-0.06 0.9 1 1.5 1.332c0.773-0.05 1.289-0.358 1.9-0.571 c-0.146-0.614-0.396-1.123-0.761-1.521c0.688-0.488 1.4 0.7 1.9 0.95c0.795 0.2 0.899-0.369 1.521-0.379 c-1.928-0.608-3.12-1.952-3.804-3.805c2.168 0.4 3.7 1.4 4.8 2.854c0.141 0.647-0.702 0.313-0.761 0.8 c0.953-0.25 1.624-0.786 2.472-1.142c-0.165-0.913-0.829-1.326-0.761-2.473c1.112 0.2 1.5 1.1 2.3 1.5 c0.719-0.295 1.185-0.844 1.901-1.141c-0.364-0.459-0.12-1.529-0.19-2.282c0.474 0.3 0.9 0.7 0.9 1.3 c0.581 0 0.741-0.401 1.144-0.57c0.09-1.358-0.483-2.052-0.571-3.232c0.853 0.3 1.3 1 1.7 1.7 c0.703-0.122 0.579-1.069 0.569-1.902c0.61-0.167 0.3 0.6 0.8 0.57c0.42-0.149 0.477-0.664 0.761-0.95 c-0.045-0.78-0.577-1.073-0.569-1.903c0.609 0.1 0.8 0.7 1.3 0.952c0.562-0.453 0.904-1.125 1.332-1.711 c-0.124-0.765-0.479-1.298-0.762-1.903c0.551-0.536 0.9 0.8 1.1 1.142c0.509-0.313 0.683-0.965 1.14-1.33 c-0.186-0.829-1.052-0.976-0.95-2.093c0.793 0 0.7 1 1.1 1.333c1.193-0.496 0.631-1.991 0.951-3.045 c0.014-0.888 0.4 0.2 0.8 0.191c0.169-0.844 0.778-1.251 0.95-2.092c-1.066-0.175-2.354-0.66-2.662-2.092 c1.069-0.368 2 1 2.9 1.522c0.787-0.588 0.324-1.271 0.189-2.283c0.557-0.17 0.584-0.17 1.1 0 c1.136-2.157-0.129-4.806-0.191-7.417c1.938 1.9 2.4 5.2 3.6 7.797c-0.35-4.981 1.645-9.441-0.19-13.693 c0.66 0.7 1.2 1.4 1.5 2.472c0.301-4.549-2.161-7.982-3.613-11.412c2.141 1.9 3.8 3.2 4.6 5.5 c0.72 2.157-0.284 4.195-0.381 6.847c-0.042 1.2 0.3 2.3 0.2 3.613c-0.35 3.622-1.561 7.2 0 10.3 c-0.906-0.233-1.119-1.163-1.33-2.091c-1.594-0.246-2.351-1.326-2.854-2.664c-1.434 1.7 0.9 4.684-0.761 6.1 c-0.586-0.301-0.329-1.447-0.95-1.712c-0.721 1.081-1.997 2.677-1.332 3.995c-1.537 0.042-1.939 2.711-3.234 3.6 c0.291 0.6 0.1 0.8 0 1.521c-0.411 0.033-0.085-0.674-0.189-0.951c-0.42 0.149-0.475 0.665-0.76 1 c0.146 0.5 0.2 1.1 0.6 1.331c-0.371 0.601-1.002-0.12-1.141-0.38c-0.999 0.777-1.311 2.239-2.664 2.7 c-0.256 0.442-0.314 1.08-0.57 1.521c-2.247 0.586-2.764 2.131-4.564 2.853c0.752 0.563-0.012 1.209-0.381 1.7 c-0.418-0.215-0.632-0.636-1.141-0.76c-1.185 0.907-2.629 1.556-4.185 2.092c0.16 0.7 0.6 1 0.6 1.9 c-0.931-0.211-1.128-1.154-1.902-1.521c-0.866 0.465-2.356 0.306-2.281 1.712c-0.83-0.917-2.735-0.604-2.664 1 c-0.568-0.193-0.474-1.047-1.521-0.761c-0.636 0.379-0.413 1.618-0.762 2.282c-0.278-0.608-0.544-1.232-0.569-2.092 c-1.466-0.006-2.975-0.058-4.186 0.19c0 0.6 0 1.1 0 1.712c-1.319 0.114-1.509-0.899-1.901-1.712 c-0.368 0.71-0.12 2.035-0.38 2.853c-1.263-0.075-1.377-1.18-1.142-2.282c-0.728-0.287-1.206-0.822-2.093-0.951 c-0.236 0.587-0.296 1.352-0.379 2.092c-1.083-0.059-1.3-0.984-1.332-2.092c-0.194-0.44-0.875-0.394-1.521-0.381 c-0.411 0.793-0.594 1.815-0.761 2.853c-1.286-0.312-1.397-1.653-1.142-3.043c-0.139-0.178-0.345-0.288-0.57-0.38 c-1.107 0.032-0.67 1.611-1.901 1.521c0.038-0.595-0.129-1.396 0.189-1.712c-1.078-0.697-2.708-0.842-3.994-1.331 c-0.802 0.022-0.56 1.088-1.522 0.951c-0.376-0.358-0.091-0.899 0-1.332c-0.341-0.609-1.252-0.649-1.71-1.14 c-0.674-0.103-0.469 0.673-1.142 0.57c-0.39-0.309 0.009-1.403-0.381-1.712c-0.615 0.399-0.711 1.319-1.521 1.5 c-0.796-0.316-0.19-1.769 0.19-2.091c-0.448-0.737-1.073-0.796-2.092-0.572c0.504-1.381-1.363-1.383-1.902-2.282 c-0.568 0.51-0.641 1.516-1.902 1.332c-0.079-0.903 0.093-1.556 0.381-2.092c-0.45-1.262-1.969-1.455-2.473-2.663 c-0.793 0.006-0.938 0.659-1.712 0.19c0.05-0.584 0.413-0.855 0.57-1.331c-0.118-0.516-0.794-0.474-0.76-1.142 c-0.318 0.252-0.638 0.504-1.332 0.38c0.171-1.412 0.532-2.148 0-3.424c-0.716 0.046-0.741 0.781-0.951 1.3 c-0.972-0.799 0.3-1.753 0.19-2.854c-0.172-0.52-0.425 0.578-0.761 0c-0.235-1.102 0.561-1.383 0.19-2.091 c-1.186 1.985-2.529 3.81-2.853 6.656c-0.846-1.59-0.263-4.749 0-6.466C1.127 58 1.3 59.7 0 59.8 C0.871 49.796-0.839 35.5 4.2 29.02c-0.819-0.307-1.232 1.428-2.662 1.141c4.958-4.932 7.571-12.208 13.313-16.356 c-2.08 0.202-3.932 2.28-5.325 3.803c0.841-2.434 3.099-5.515 5.896-6.656c3.557-1.452 8.359-0.957 11.602-3.044 c-1.458 2.12-4.251 3.113-7.418 3.804c-6.939 1.514-8.306 8.456-12.172 14.076c-3.07 3.36-4.195 8.317-4.564 14.5 C2.562 45.1 2.8 50.5 1.9 55.077z" class="style0"/><path d="M55.537 9.431c5.413-0.533 8.9 0.9 10.3 4.4 C64.359 9.8 58.4 11.5 55.5 9.431z" class="style0"/><path d="M58.389 10.762c8.079 0.7 10 7.8 13.7 13.3 c2.301 3.4 5.1 5.4 8.6 7.796c-10.081-1.324-11.877-13.4-18.828-18.828C60.673 12.2 59.3 12.1 58.4 10.762z" class="style0"/><path d="M27.578 18.749c2.753 3.5 4.3 8.1 9.5 9.1 c-5.374 1.307-8.281-3.122-8.938-7.798c-0.686 5.085-5.316 7.237-7.798 9.89c0.978-4.919 5.401-6.389 7.608-10.081 C27.807 19.5 27.6 19.2 27.6 18.749z" class="style0"/><path d="M50.021 26.738c-1.069-0.896-2.02-1.911-2.853-3.043 c2.191 0.5 5 2.1 5.9 4.565c-1.084-0.867-1.764-0.532-3.423-0.38c0.123 0.2 0.4 0.2 0.4 0.6 c-2.001 0.312-5.194 0.448-6.467-0.571c-0.262 0.2 0.1 0.314-0.381 0.571c-5.267 0.956-7.693-2.406-9.699-5.326 c2.438 1.3 4.9 4.2 9.1 4.374c-1.726-0.81-2.291-2.78-3.423-4.185c1.263 0.1 1.6 1.7 2.7 2.5 c1.624 1.2 3.8 1.6 6.3 1.901c-2.915-0.762-4.521-2.833-5.706-5.326C44.443 23.6 46.6 26.3 50 26.738z" class="style0"/><path d="M50.212 23.505c3.146 0.5 4.1 3.3 5.9 5.1 C53.241 27.8 51.5 25.9 50.2 23.505z" class="style0"/><path d="M20.352 24.076c0.778 6.483-4.42 8.64-5.896 13.5 C13.985 31.4 18.9 29 20.4 24.076z" class="style0"/><path d="M64.095 30.731c0.897 1.4 2 4.9 0 5.9 C64.19 34.3 64.5 32.9 64.1 30.731z" class="style0"/><path d="M33.855 42.144c-1.438-0.432-2.571-1.662-2.853-3.615 c-0.319-2.21 0.362-6.335 2.282-6.085C35.285 32.7 36.6 41.5 33.9 42.144z" class="style0"/><path d="M38.99 33.585c1.857 1.2 2.7 7.3 0.4 8.8 C36.19 41.8 36.5 34.7 39 33.585z" class="style0"/><path d="M63.904 41.383c1.163 0.6 1.8 1.6 2.5 2.7 C64.99 43.7 64.2 42.8 63.9 41.383z" class="style0"/><path d="M62.003 42.334c0.98-0.595 1.5 0.9 2.3 1.1 C63.391 44 62.7 42.7 62 42.334z" class="style0"/><path d="M55.156 42.525c0.79 0.2 0.9 1 1.1 1.7 C55.325 44.3 55.1 43.5 55.2 42.525z" class="style0"/><path d="M60.481 42.525c0.682 0.3 1 1.2 0.8 1.9 C60.414 44.4 60.5 43.4 60.5 42.525z" class="style0"/><path d="M69.991 42.525c0.736 0.1 1.2 0.5 1.1 1.3 C70.216 43.9 70.2 43.1 70 42.525z" class="style0"/><path d="M49.831 42.714c1.276 0.2 1.4 1.5 1.9 2.5 C50.465 45 50.1 43.9 49.8 42.714z" class="style0"/><path d="M52.493 42.714c0.459-0.077 0.4 0.3 1 0.2 c-0.209 0.8 0.8 1 0.4 1.521C53.058 44.2 52.6 43.7 52.5 42.714z" class="style0"/><path d="M66.948 43.095c1.254-0.377 2.5 3.2 1 4 C67.802 45.5 67.4 44.3 66.9 43.095z" class="style0"/><path d="M58.009 43.095c0.49 0.3 1.1 0.4 1.1 1.1 C58.534 44.1 58.2 43.7 58 43.095z" class="style0"/><path d="M48.119 43.474c0.126 0 0.3 0 0.4 0c0.941 0 0.8 1.1 1.3 1.5 C48.851 45.7 48.4 44.1 48.1 43.474z" class="style0"/><path d="M68.47 43.474c1.581-0.122 1.4 1.5 2.3 2.1 C69.478 46.1 68.8 44.5 68.5 43.474z" class="style0"/><path d="M45.646 43.855c0.598 0 0.9 0.4 1 1 C45.849 44.9 45.8 44.4 45.6 43.855z" class="style0"/><path d="M63.716 44.997C61.462 56.9 52.7 68.7 37.1 67.6 c-9.715-0.695-17.786-4.59-21.491-11.982c-1.553 0.239-3.642 1.163-4.756 0.19c1.486-3.436 6.14-3.424 9.511-4.184 C34.185 48.5 47 44.9 63.7 44.997z M51.542 46.518c1.041 1.9 2.7 3.1 5.9 2.9 c1.009-0.723 2.769-2.656 2.281-3.613C57.032 46 54.2 46.2 51.5 46.518z M40.891 48.4 c0.916 4.8 8.1 2.8 8.179-1.521C46.35 47.4 43.6 47.9 40.9 48.419z M29.1 51.1 c0.518 4.2 9.9 1.9 8.56-2.092C34.716 49.6 31.9 50.4 29.1 51.082z M18.068 55.1 c2.604 2 6.9 0.6 7.228-2.473C22.76 53.3 20.3 54.1 18.1 55.077z" class="style0"/><path d="M70.941 46.518c1.676 0.6 1.8 4.4 0 4.9 C70.961 49.6 71.3 48.2 70.9 46.518z" class="style0"/><path d="M72.653 47.279c1.08 0.6 1.7 3.1 1 3.8 C72.36 50.8 72.3 48.5 72.7 47.279z" class="style0"/><path d="M26.247 47.85c0.439 0.2 0.4 0.9 0.4 1.5 C25.925 49.4 25.9 48.2 26.2 47.85z" class="style0"/><path d="M27.578 47.85c0.403 0.2 0.9 0.8 0.6 1.1 C27.468 49.1 27.6 48.4 27.6 47.85z" class="style0"/><path d="M21.872 48.23c0.72 0.4 0.8 1.5 1.1 2.3 C22.235 50.9 21.7 49.5 21.9 48.23z" class="style0"/><path d="M68.089 48.23c1.174 0.7 2.2 1.6 2.5 3.2 C68.721 51.4 68.3 49.9 68.1 48.23z" class="style0"/><path d="M23.965 48.419c0.818 0.1 0.9 1.4 0.4 1.7 C23.858 49.9 24 49.1 24 48.419z" class="style0"/><path d="M20.541 48.8c0.775 0.3 0.2 1.8 0.2 2.5 C19.935 50.8 20.7 49.8 20.5 48.8z" class="style0"/><path d="M16.928 49.18c0.236 0.7 0.6 2.15-0.19 2.3 C15.865 51 16.7 49.7 16.9 49.18z" class="style0"/><path d="M18.639 49.371c0.64 0.1 1 1.2 0.6 1.7 C18.293 51.1 18.4 50 18.6 49.371z" class="style0"/><path d="M13.504 49.752c0.915 0.6 0.2 2.639-0.761 2.7 C12.104 51.3 13 50.3 13.5 49.752z" class="style0"/><path d="M14.835 49.752c0.729 0.2 0.6 2.522-0.38 2.3 C14.32 51 14.6 50.4 14.8 49.752z" class="style0"/><path d="M11.602 50.322c0.515 0.9 0.4 2.445-0.189 3.2 C10.182 53 11.4 51.3 11.6 50.322z" class="style0"/><path d="M9.51 51.653c0.597 1 0.3 3.465-0.951 3.8 C8.028 54 9 52.7 9.5 51.653z" class="style0"/><path d="M67.138 54.126c1.766 0.3 3.6 2.2 2.7 4 C68.11 57.6 67.7 55.8 67.1 54.126z" class="style0"/><path d="M8.749 56.028c0.077 0.458-0.348 0.413-0.19 0.9 c-0.658 0.151-0.803-0.21-1.141-0.38C7.519 56.1 8.3 56.2 8.7 56.028z" class="style0"/><path d="M65.046 56.028c1.143 0.6 2.2 1.2 2.5 2.7 C65.775 58.7 65.5 57.3 65 56.028z" class="style0"/><path d="M9.89 57.55c1.032 0.4 1.4 2.9 0.4 3.6 C9.264 60.9 9.3 58.2 9.9 57.55z" class="style0"/><path d="M64.285 59.261c0.862-0.601 1.7 0.4 2.3 0.8 C65.69 60.6 64.7 59.7 64.3 59.261z" class="style0"/><path d="M62.765 60.972c1.463-0.558 2.1 1.4 1.7 2.9 C63.457 63.3 63.8 61.5 62.8 60.972z" class="style0"/><path d="M12.173 61.733c0.708 0.3 1.1 3.217-0.19 3.2 C11.596 64.1 11.7 62.4 12.2 61.733z" class="style0"/><path d="M14.646 62.494c0.665 0.857-0.009 2.153-0.381 3 C12.627 65.1 14.2 63.2 14.6 62.494z" class="style0"/><path d="M60.861 62.494c1.146 0.8 3.7 1.8 2.5 3.2 C61.753 65.4 61.5 63.8 60.9 62.494z" class="style0"/><path d="M56.867 66.488c1.048 0.6 3.1 1.2 2.5 2.9 c-0.222-0.031-0.339 0.042-0.381 0.19C57.705 69.1 57.3 67.8 56.9 66.488z" class="style0"/><path d="M53.254 67.821c1.251 0.3 1.2 2 2.5 2.3 c-0.345 0.455-1.49 0.107-1.902 0C53.51 69.5 53.2 68.9 53.3 67.821z" class="style0"/><path d="M21.872 68.011c0.847 0.5 1.1 3.1 0.4 4 C20.835 71.6 21.8 69.2 21.9 68.011z" class="style0"/><path d="M48.31 75.998c-1.573-0.58-2.127-2.184-2.664-3.804 C47.144 72.7 48.5 74.4 48.3 75.998z" class="style0"/><path d="M28.909 72.385c0.918 0.6 0.1 2.118-0.381 2.5 c-0.152-0.101-0.308-0.199-0.569-0.191C27.388 73.7 28.5 73 28.9 72.385z" class="style0"/><path d="M34.616 72.764c0.616 0.4 1 1 0.9 2.1 c-0.458-0.078-0.413 0.347-0.95 0.19C34.149 74.4 34.2 73.5 34.6 72.764z" class="style0"/><path d="M39.561 72.764c1.625 0.5 2.3 2 2.5 4 C40.798 76.7 39.3 74.3 39.6 72.764z" class="style0"/><path d="M51.922 22.743c5.665 1.4 11.4 5.3 10.8 12.9 C60.796 29.7 56.5 26.1 51.9 22.743z" class="style0"/><path d="M65.046 31.493c2.051 4.5 7.7 8.4 7.8 14.8 c-0.772-2.865-3.212-4.95-4.755-7.036C66.542 37.2 66.1 34.3 65 31.493z" class="style0"/></g></g></svg>