<?xml version="1.0" encoding="UTF-8" standalone="no"?>
<svg width="110px" height="111px" viewBox="0 0 110 111" version="1.1" xmlns="http://www.w3.org/2000/svg" xmlns:xlink="http://www.w3.org/1999/xlink" xmlns:sketch="http://www.bohemiancoding.com/sketch/ns">
    <!-- Generator: Sketch 3.3.2 (12043) - http://www.bohemiancoding.com/sketch -->
    <title>Rectangle 8 Copy 5 + LOGO Copy 7</title>
    <desc>Created with Sketch.</desc>
    <defs>
        <filter x="-50%" y="-50%" width="200%" height="200%" filterUnits="objectBoundingBox" id="filter-1">
            <feOffset dx="0" dy="2" in="SourceAlpha" result="shadowOffsetOuter1"></feOffset>
            <feGaussianBlur stdDeviation="0" in="shadowOffsetOuter1" result="shadowBlurOuter1"></feGaussianBlur>
            <feColorMatrix values="0 0 0 0 0.314369351   0 0 0 0 0.8883757   0 0 0 0 0.759899616  0 0 0 0.7 0" in="shadowBlurOuter1" type="matrix" result="shadowMatrixOuter1"></feColorMatrix>
            <feMerge>
                <feMergeNode in="shadowMatrixOuter1"></feMergeNode>
                <feMergeNode in="SourceGraphic"></feMergeNode>
            </feMerge>
        </filter>
    </defs>
    <g id="Welcome" stroke="none" stroke-width="1" fill="none" fill-rule="evenodd" sketch:type="MSPage">
        <g id="Artboard-8" sketch:type="MSArtboardGroup" transform="translate(-3.000000, -2.000000)">
            <g id="Rectangle-8-Copy-5-+-LOGO-Copy-7" sketch:type="MSLayerGroup" transform="translate(3.000000, 1.000000)">
                <path d="M100,92.5284137 L100,100 L93.0206747,100 L93.0206747,100 C92.8226542,97.29424 90.5646956,95.1605643 87.8083903,95.1605643 C85.0520851,95.1605643 82.7941265,97.29424 82.5961059,100 L76.9930718,100 C76.7950513,97.29424 74.5370927,95.1605643 71.7807874,95.1605643 C69.0244821,95.1605643 66.7665235,97.29424 66.568503,100 L66.568503,100 L60.9654688,100 L60.9654688,100 C60.7674483,97.29424 58.5094897,95.1605643 55.7531844,95.1605643 C52.9968792,95.1605643 50.7389206,97.29424 50.5409,100 L44.9378659,100 C44.7398454,97.29424 42.4818868,95.1605643 39.7255815,95.1605643 C36.9692762,95.1605643 34.7113176,97.29424 34.5132971,100 L34.5132971,100 L28.9102629,100 L28.9102629,100 C28.7122424,97.29424 26.4542838,95.1605643 23.6979785,95.1605643 C20.9416733,95.1605643 18.6837147,97.29424 18.4856941,100 L11,100 L11,92.5143059 L11,92.5143059 C11.1277647,92.5236563 11.2568051,92.5284137 11.3869565,92.5284137 C14.2734133,92.5284137 16.6133488,90.1884782 16.6133488,87.3020215 C16.6133488,84.4155647 14.2734133,82.0756292 11.3869565,82.0756292 C11.2568051,82.0756292 11.1277647,82.0803866 11,82.0897371 L11,76.4867029 L11,76.4867029 C11.1277647,76.4960533 11.2568051,76.5008108 11.3869565,76.5008108 C14.2734133,76.5008108 16.6133488,74.1608753 16.6133488,71.2744185 C16.6133488,68.3879618 14.2734133,66.0480262 11.3869565,66.0480262 C11.2568051,66.0480262 11.1277647,66.0527837 11,66.0621341 L11,60.4591 L11,60.4591 C11.1277647,60.4684504 11.2568051,60.4732078 11.3869565,60.4732078 C14.2734133,60.4732078 16.6133488,58.1332723 16.6133488,55.2468156 C16.6133488,52.3603588 14.2734133,50.0204233 11.3869565,50.0204233 C11.2568051,50.0204233 11.1277647,50.0251807 11,50.0345312 L11,44.431497 L11,44.431497 C11.1277647,44.4408474 11.2568051,44.4456049 11.3869565,44.4456049 C14.2734133,44.4456049 16.6133488,42.1056694 16.6133488,39.2192126 C16.6133488,36.3327559 14.2734133,33.9928203 11.3869565,33.9928203 C11.2568051,33.9928203 11.1277647,33.9975778 11,34.0069282 L11,28.4038941 L11,28.4038941 C11.1277647,28.4132445 11.2568051,28.4180019 11.3869565,28.4180019 C14.2734133,28.4180019 16.6133488,26.0780664 16.6133488,23.1916097 C16.6133488,20.3051529 14.2734133,17.9652174 11.3869565,17.9652174 C11.2568051,17.9652174 11.1277647,17.9699748 11,17.9793253 L11,11 L18.4856941,11 C18.4763437,11.1277647 18.4715863,11.2568051 18.4715863,11.3869565 C18.4715863,14.2734133 20.8115218,16.6133488 23.6979785,16.6133488 C26.5844353,16.6133488 28.9243708,14.2734133 28.9243708,11.3869565 C28.9243708,11.2568051 28.9196134,11.1277647 28.9102629,11 L28.9102629,11 L34.5132971,11 L34.5132971,11 C34.5039467,11.1277647 34.4991892,11.2568051 34.4991892,11.3869565 C34.4991892,14.2734133 36.8391247,16.6133488 39.7255815,16.6133488 C42.6120382,16.6133488 44.9519738,14.2734133 44.9519738,11.3869565 C44.9519738,11.2568051 44.9472163,11.1277647 44.9378659,11 L50.5409,11 C50.5315496,11.1277647 50.5267922,11.2568051 50.5267922,11.3869565 C50.5267922,14.2734133 52.8667277,16.6133488 55.7531844,16.6133488 C58.6396412,16.6133488 60.9795767,14.2734133 60.9795767,11.3869565 C60.9795767,11.2568051 60.9748193,11.1277647 60.9654688,11 L60.9654688,11 L66.568503,11 L66.568503,11 C66.5591526,11.1277647 66.5543951,11.2568051 66.5543951,11.3869565 C66.5543951,14.2734133 68.8943306,16.6133488 71.7807874,16.6133488 C74.6672441,16.6133488 77.0071797,14.2734133 77.0071797,11.3869565 C77.0071797,11.2568051 77.0024222,11.1277647 76.9930718,11 L82.5961059,11 C82.5867555,11.1277647 82.5819981,11.2568051 82.5819981,11.3869565 C82.5819981,14.2734133 84.9219336,16.6133488 87.8083903,16.6133488 C90.6948471,16.6133488 93.0347826,14.2734133 93.0347826,11.3869565 C93.0347826,11.2568051 93.0300252,11.1277647 93.0206747,11 L93.0206747,11 L100,11 L100,17.9652174 C97.1135433,17.9652174 94.7736077,20.3051529 94.7736077,23.1916097 C94.7736077,26.0780664 97.1135433,28.4180019 100,28.4180019 L100,28.4180019 L100,33.9928203 C97.1135433,33.9928203 94.7736077,36.3327559 94.7736077,39.2192126 C94.7736077,42.1056694 97.1135433,44.4456049 100,44.4456049 L100,44.4456049 L100,50.0204233 C97.1135433,50.0204233 94.7736077,52.3603588 94.7736077,55.2468156 C94.7736077,58.1332723 97.1135433,60.4732078 100,60.4732078 L100,60.4732078 L100,66.0480262 C97.1135433,66.0480262 94.7736077,68.3879618 94.7736077,71.2744185 C94.7736077,74.1608753 97.1135433,76.5008108 100,76.5008108 L100,76.5008108 L100,82.0756292 C97.1135433,82.0756292 94.7736077,84.4155647 94.7736077,87.3020215 C94.7736077,90.1884782 97.1135433,92.5284137 100,92.5284137 Z" id="Rectangle-8-Copy-5" stroke="#000000" fill="#FFFFFF" filter="url(#filter-1)" sketch:type="MSShapeGroup" transform="translate(55.500000, 55.500000) rotate(-345.000000) translate(-55.500000, -55.500000) "></path>
                <g id="LOGO-Copy-7" transform="translate(55.607406, 55.607406) rotate(-345.000000) translate(-55.607406, -55.607406) translate(26.000000, 26.000000)" fill="#000000" sketch:type="MSShapeGroup">
                    <path d="M28.3646257,0.0801566349 C26.0640206,1.01170672 26.1458979,4.29740662 22.6639208,4.05188179 C23.0360237,3.03945294 24.2941557,2.89069378 25.0273959,2.12884468 C25.7840296,1.37205051 26.5472427,-0.392839724 28.3646257,0.0801566349 L28.3646257,0.0801566349 Z" id="Shape"></path>
                    <path d="M25.0273959,0.76690402 C24.8782623,1.6009663 24.0631448,1.78294353 23.4973144,2.42780727 C21.9548051,4.15442451 20.8077923,6.53529321 18.6314652,7.7845813 C18.7820609,6.76348687 19.7697055,6.03124518 20.4393446,5.03759176 C21.6302202,3.24959331 22.5162493,1.29983732 25.0018092,0.76690402 L25.0273959,0.76690402 Z" id="Shape"></path>
                    <path d="M37.5414594,2.55201394 C36.2387335,4.12192858 32.6003123,2.96723975 29.7558082,3.27414579 C27.7563945,3.46551073 26.2774864,4.39272802 24.6106991,4.37323046 C26.2511687,3.01923325 27.5538945,1.89920675 29.7558082,1.76344597 C32.3422527,1.58869006 34.7978398,3.39401968 37.5758186,2.55201394 L37.5414594,2.55201394 Z" id="Shape"></path>
                    <path d="M34.8994553,4.47505105 C37.0099882,5.55824882 39.5050517,4.6916906 41.9906117,4.61947742 C42.5038068,4.59853559 43.5133827,4.31401565 43.8182294,5.0318147 C41.7837254,5.1928501 40.2404851,6.86964025 38.1182555,6.40530947 C36.9266488,6.13812069 35.6750962,5.41598884 34.8709445,4.47505105 L34.8994553,4.47505105 Z" id="Shape"></path>
                    <path d="M1.3904515,39.7728557 C2.07909782,38.9438483 2.61130008,37.9574162 2.91980193,36.751456 C3.55800601,37.9314195 2.53600223,39.1142714 2.64127301,40.5968081 C3.35550598,39.7468589 3.7831685,38.6116677 4.17135449,37.4382034 C4.30148087,37.5104166 4.39066861,37.654843 4.46377331,37.8714825 C6.03844867,34.6211671 7.17668893,30.9368504 7.10504632,26.0602941 C7.7045049,26.7102127 7.61677925,28.0822632 7.68988396,29.2188988 C8.68264586,27.6367079 9.30769109,25.6891183 10.331157,24.1365348 C10.3253086,26.42136 9.38591313,28.9719297 7.82805185,30.1807784 C7.44571424,33.1444075 6.57430616,35.6256525 5.46530778,37.8714825 C5.59031682,38.2325485 5.77600277,37.4548125 6.05014542,37.8714825 C6.1290985,39.139546 5.8556869,40.0602642 4.9374918,40.3433398 C4.82052427,40.0010493 4.75546109,39.6082096 4.79859286,39.1077722 C3.94911619,39.8299041 4.87169757,40.985315 4.94480227,41.9962996 C5.04130048,42.3573656 5.31544313,41.740665 5.64002802,41.8583724 C5.55084028,42.7415397 5.20213084,43.1582098 5.64002802,43.9193367 C5.8184035,44.2804027 5.92732951,43.4860576 6.33452272,43.6442045 C6.63644516,44.473934 5.99312375,45.5217473 6.77315095,45.9781346 C7.11601202,45.5852949 7.10650841,44.8429434 7.74617458,44.742567 C7.78272694,45.5578539 7.73301574,46.2872071 7.46764566,46.8367494 C7.83024499,47.6310944 8.56421624,48.0643735 9.29526329,48.4846543 C9.49410809,48.3156754 9.55844023,48.01238 9.57379222,47.6607018 C10.2171136,47.8773414 9.93931575,48.9605392 10.2317346,49.4660314 C10.7865993,49.2804436 10.3713646,48.138031 11.0665903,48.0918145 C11.4511211,49.1150754 10.688639,50.4026365 11.8707421,50.5636719 C12.180706,50.0459033 12.5155256,49.5519651 12.7055978,48.915767 C13.3291809,49.3490461 13.144226,50.6488834 12.8518072,51.2504192 C13.221717,51.6114852 13.3386845,51.1485986 13.6859319,51.1132142 C13.7107875,51.5464933 13.7590366,51.9075592 14.2707695,51.9075592 C14.62021,51.6122073 14.3526468,50.7073761 14.9659953,50.6712695 C15.1663022,51.1045486 15.1122047,51.8266805 15.1122047,52.4571016 C15.6012752,52.8181675 16.2087753,53.1070202 16.7936129,53.395873 C17.1869162,53.1893432 17.2775661,52.683851 17.3499397,52.1595832 C17.9472052,52.3762228 17.7154633,53.0261414 17.6423586,53.6710052 C17.695725,54.1042843 18.3003009,53.9598579 18.4465103,54.2487107 C18.442124,53.6767822 18.7689021,52.7863937 19.281366,52.3256736 C20.0460413,52.5423131 19.8662037,53.9143636 19.4275755,54.3859157 C19.6629726,54.6747685 20.0855178,54.7469816 20.524146,54.8191948 C21.1989025,54.8191948 20.9620432,53.9692456 21.6360686,53.9945203 C21.6952834,54.4393535 21.4525758,55.1499312 21.9284874,55.23081 C22.8883522,55.126823 22.7216735,53.9071423 23.5967368,53.7201102 C23.8862314,54.2978156 23.8160509,54.6588816 23.7429462,55.368015 C23.6800762,55.7290809 24.501042,55.2604174 24.4739933,55.6431473 C24.9016558,55.4250634 24.6830727,54.5678929 25.169219,54.4068575 C25.9624051,54.4790707 25.2423237,56.0677608 26.411999,55.7803523 C26.7950677,55.4257856 26.7475496,54.6458832 26.8294269,53.9945203 C27.778326,53.9728563 27.4873692,55.1499312 27.6335786,55.9442762 L28.291521,55.9442762 C28.6051402,55.8410114 28.3463495,55.1737616 28.4304199,54.8451916 C29.162198,54.7628685 29.0883623,55.4951102 29.2345717,55.9283893 C30.3457632,55.9269451 31.5008176,56.0006025 32.4321715,55.7904622 C32.4994278,55.3564609 32.1806913,55.3059117 32.2925415,54.8293047 C32.9936156,54.8249719 32.658065,55.8402893 33.5353215,55.6236497 C33.9681014,55.3607937 33.3182005,55.0271688 33.3956915,54.6617701 C33.8964587,54.8061964 34.272948,55.0950492 34.4922621,55.4857225 C34.8146538,55.3015789 35.282524,55.2589731 35.6041847,55.0733852 C35.7131107,54.507956 35.3907189,54.3693067 35.4660168,53.8378176 C36.2058364,53.7944897 36.1239591,54.5599495 36.5625874,54.7996973 C37.1276867,54.7635907 37.504907,54.5411741 37.9515768,54.38736 C37.8448439,53.943971 37.6620821,53.5764059 37.3952499,53.2889974 C37.8982103,52.9365971 38.4187158,53.7944897 38.7842394,53.9750227 C39.3654218,54.1194491 39.4414507,53.708556 39.8961619,53.7013347 C38.4867032,53.2622786 37.6152951,52.2917334 37.1152589,50.953623 C38.7001689,51.2424758 39.820133,51.9646076 40.6242848,53.0145873 C40.7273624,53.4818066 40.1110898,53.2406146 40.067958,53.5922928 C40.7646458,53.4117599 41.2551784,53.0246972 41.8751063,52.7676182 C41.7544835,52.1083119 41.2690683,51.8100714 41.3187795,50.9817862 C42.1317038,51.1262126 42.4153501,51.7761312 43.0001877,52.064984 C43.5258105,51.8519551 43.8664785,51.4555047 44.3899082,51.2410315 C44.123807,50.909573 44.3021825,50.1368919 44.2510092,49.5931267 C44.5975255,49.8097662 44.9089516,50.0986189 44.9089516,50.5318981 C45.3336899,50.5318981 45.4506574,50.2423232 45.7452694,50.1202829 C45.8110636,49.1396279 45.3921737,48.6384684 45.3278415,47.7863528 C45.9514247,48.0029923 46.2782027,48.5084846 46.5706215,49.0139769 C47.0845476,48.9258768 46.9938978,48.242018 46.9865873,47.6404821 C47.432526,47.5198861 47.2059014,48.0737612 47.5714249,48.0520973 C47.8784647,47.9444996 47.9201344,47.5726017 48.1277517,47.366072 C48.0948546,46.8028092 47.7059376,46.5912246 47.711786,45.9918551 C48.1569936,46.0640683 48.2966236,46.4973474 48.6621471,46.6793247 C49.0729956,46.3521989 49.3230137,45.8669263 49.6359018,45.4437571 C49.545252,44.8913262 49.2857303,44.5064299 49.078844,44.0695402 C49.4816509,43.6824775 49.7367863,44.6472456 49.8829957,44.8942147 C50.2550987,44.6681875 50.3823009,44.1973575 50.7163894,43.9337794 C50.5804146,43.3351321 49.9473279,43.2289787 50.0218947,42.4223574 C50.601615,42.4223574 50.5336276,43.1444893 50.8260464,43.3849592 C51.6981856,43.0267818 51.2873371,41.9471947 51.5212722,41.1860677 C51.5315068,40.5448146 51.813691,41.3304941 52.1061098,41.3239949 C52.2296568,40.7145156 52.6748644,40.4206079 52.8006045,39.8132951 C52.0213084,39.686922 51.0797198,39.336688 50.8545573,38.3025952 C51.6360466,38.0368507 52.3166514,39.0247271 52.9745937,39.4016799 C53.5499277,38.9770664 53.211453,38.4838503 53.1127616,37.7530529 C53.5199548,37.6302905 53.5396931,37.6302905 53.9169134,37.7530529 C54.7473828,36.1954145 53.8226083,34.2824873 53.7772834,32.397001 C55.1940526,33.7690515 55.5317963,36.1520866 56.4090528,38.027463 C56.1531863,34.4305243 57.6116252,31.2098162 56.2701538,28.1393116 C56.7526449,28.6448039 57.1474103,29.1502962 57.3667244,29.9244216 C57.5867696,26.6394438 55.7869317,24.1603652 54.7254514,21.6834529 C56.2906232,23.0555034 57.5034302,23.9942748 58.0882679,25.6551781 C58.6146217,27.2128165 57.8806505,28.6845212 57.8097389,30.5996148 C57.779035,31.4661731 58.029053,32.2605181 57.9559483,33.2086772 C57.7000819,35.8242387 56.8147839,38.4080265 57.9559483,40.6466352 C57.2936197,40.4783785 57.1379067,39.8067959 56.9836558,39.1366575 C55.8183668,38.9590131 55.2649641,38.1791107 54.8972475,37.2128983 C53.848926,38.4405224 55.5551898,40.5953639 54.3409207,41.6179025 C53.9125271,41.4005409 54.1004062,40.5729778 53.646426,40.3816128 C53.119341,41.1622374 52.186525,42.3147598 52.6726713,43.2665295 C51.549052,43.2968591 51.255171,45.224229 50.3084651,45.8662042 C50.5211998,46.2994833 50.3815698,46.4439097 50.3084651,46.9645667 C50.0080048,46.9883971 50.2463261,46.4778499 50.1702972,46.2778193 C49.8632575,46.385417 49.8230499,46.758037 49.6147015,46.9999512 C49.7214343,47.3610171 49.7609109,47.7942962 50.0533297,47.9611087 C49.7821112,48.3951099 49.3208205,47.8744529 49.219205,47.6866986 C48.488889,48.247795 48.2608023,49.3035518 47.2716956,49.6364546 C47.0845476,49.9556368 47.0421469,50.416357 46.8549988,50.7348171 C45.2123361,51.1579864 44.8343848,52.2736801 43.5185001,52.7950593 C44.0682475,53.2016195 43.5097275,53.6681167 43.2399711,54.0226834 C42.9343935,53.867425 42.7779494,53.5634075 42.4058465,53.4738632 C41.5395557,54.1288368 40.4839238,54.5975003 39.3464145,54.984563 C39.4633821,55.4900553 39.7850428,55.7066949 39.7850428,56.3566135 C39.104438,56.2042437 38.9604217,55.5232734 38.3945913,55.258251 C37.7615045,55.5940423 36.6722444,55.4792233 36.7270729,56.4945407 C36.1203039,55.8323458 34.7276592,56.0583731 34.7795636,57.2166725 C34.3643289,57.0773011 34.4330473,56.4606005 33.667641,56.6671302 C33.2026951,56.9408182 33.3657186,57.8355395 33.1105832,58.3150351 C32.9073521,57.8759789 32.7128936,57.4253687 32.6946174,56.8043353 C31.6229024,56.8000025 30.5197524,56.7624516 29.6344544,56.9415403 L29.6344544,58.17783 C28.6702034,58.2601531 28.5313044,57.5286335 28.244734,56.9415403 C27.9757087,57.4542539 28.1570083,58.4110786 27.9669361,59.0017825 C27.0436237,58.9476226 26.9602843,58.1496669 27.1320804,57.3538776 C26.5998781,57.1466258 26.2504376,56.7602852 25.6019989,56.6671302 C25.4294718,57.0910216 25.3856089,57.6434525 25.324932,58.17783 C24.5332081,58.1352243 24.3745709,57.4672523 24.3511774,56.6671302 C24.2093542,56.3493922 23.7115112,56.3826103 23.2392548,56.391998 C22.9387945,56.9646485 22.8050128,57.7026673 22.682928,58.4522401 C21.7428015,58.226935 21.6616553,57.2585562 21.8480723,56.2547929 C21.7464567,56.1262535 21.595861,56.046819 21.4313754,55.9803828 C20.6221063,56.003491 20.9415739,57.1437372 20.041655,57.0787454 C20.0694348,56.6490769 19.9473499,56.0706493 20.1798229,55.8424556 C19.3917542,55.3391297 18.2001475,55.2344206 17.2600209,54.8812982 C16.6737212,54.8971851 16.8506346,55.6669776 16.1473673,55.5680455 C15.8724936,55.3095223 16.080842,54.918849 16.1473673,54.6061659 C15.8980803,54.1663876 15.2320964,54.1375024 14.8972769,53.7829356 C14.4045512,53.708556 14.5544158,54.2689304 14.0624211,54.1945508 C13.7773128,53.971412 14.0690006,53.1813998 13.7838922,52.9582611 C13.3342983,53.2463917 13.2641177,53.910753 12.6719696,54.0414588 C12.0900562,53.8132652 12.5330707,52.7640076 12.8108686,52.5314811 C12.4833595,51.99927 12.0264551,51.9566642 11.2815181,52.1184217 C11.6499659,51.1211576 10.285101,51.1197134 9.89106664,50.4705168 C9.47583191,50.8388041 9.42246548,51.5652687 8.50061514,51.4323965 C8.44286243,50.7803114 8.56860252,50.3087593 8.77914407,49.9216966 C8.4501729,49.0103663 7.33971242,48.8709948 6.97126471,47.9986595 C6.39154439,48.0029923 6.28554257,48.4745444 5.71971215,48.1358646 C5.7562645,47.7141396 6.02163458,47.5184419 6.13640897,47.1747071 C6.05014542,46.8020871 5.55595761,46.8324166 5.58081321,46.3500325 C5.34834025,46.5320098 5.11440519,46.713987 4.60705853,46.6244426 C4.73206758,45.6047925 4.99597557,45.0733034 4.60705853,44.1518632 C4.08362884,44.1850813 4.06535267,44.7158482 3.91183279,45.0906346 C3.20125505,44.5136512 4.1311469,43.8247375 4.05073173,43.0296703 C3.92499163,42.6541617 3.74003673,43.4470625 3.49440492,43.0296703 C3.32260886,42.233881 3.90452231,42.030962 3.63330386,41.5196926 C2.76628205,42.9531243 1.78448586,44.2710149 1.54762661,46.3262022 C0.929160806,45.1780125 1.35536124,42.896798 1.54762661,41.6568977 C0.82389003,41.8836471 0.95036117,43.1112712 0,43.1834844 C0.636741984,35.9592774 -0.613348478,25.6356805 3.07039763,20.9562662 C2.47167009,20.7345717 2.16974766,21.9874704 1.12435037,21.7802186 C4.74888166,18.2186643 6.65910761,12.964433 10.8567798,9.96903013 C9.33620193,10.1149008 7.98230278,11.6154907 6.96395424,12.7152975 C7.57876481,10.9576286 9.22946906,8.73274041 11.2742077,7.90878798 C13.874542,6.86025254 17.38503,7.2177078 19.7558156,5.71061864 C18.689949,7.24153815 16.6481346,7.95861507 14.3329085,8.45760818 C9.26017303,9.55091579 8.26083171,14.5639551 5.4346038,18.622336 C3.19028934,21.048699 2.36786141,24.6283066 2.09810504,29.0932478 C1.87294255,32.5681463 2.04693175,36.4676582 1.3889894,39.7728557 L1.3904515,39.7728557 Z" id="Shape"></path>
                    <path d="M40.6001602,6.81042544 C44.5573179,6.42552917 47.106479,7.4603441 48.1299449,9.98780556 C47.0494573,7.07689209 42.6931479,8.30451623 40.5731115,6.81042544 L40.6001602,6.81042544 Z" id="Shape"></path>
                    <path d="M42.6851064,7.77158293 C48.5912356,8.27707522 49.995577,13.4042113 52.7004511,17.3759365 C54.3825903,19.8311848 56.428791,21.2754484 58.9874557,23.0056763 C51.6177704,22.0495738 50.3048099,13.3291096 45.2233018,9.40937795 C44.3548179,8.81000852 43.3510903,8.73779534 42.6931479,7.77158293 L42.6851064,7.77158293 Z" id="Shape"></path>
                    <path d="M20.1608157,13.53925 C22.1733882,16.0667114 23.304318,19.3885179 27.1057627,20.1106498 C23.1771158,21.0544761 21.051962,17.8561542 20.5716641,14.4794656 C20.0701658,18.1515061 16.685418,19.7055338 14.8709592,21.6213496 C15.5859232,18.069183 18.8193443,17.0076492 20.4327652,14.3415385 C20.3282254,14.081571 20.1768987,13.8649314 20.1768987,13.53925 L20.1608157,13.53925 Z" id="Shape"></path>
                    <path d="M36.5677047,19.3083613 C35.7862154,18.6613312 35.0909896,17.9283673 34.4820274,17.1109141 C36.0837515,17.47198 38.1372627,18.627391 38.7952051,20.407446 C38.0027501,19.7813577 37.5056381,20.0232718 36.292831,20.1330359 C36.3827498,20.2774622 36.5852498,20.2774622 36.5852498,20.566315 C35.1224247,20.7916201 32.7881914,20.88983 31.8575685,20.1539777 C31.6660342,20.2984041 31.9306732,20.3807271 31.5790396,20.566315 C27.7286148,21.256673 25.9550946,18.8288658 24.4886142,16.7202408 C26.2709069,17.6590122 28.0707448,19.7531945 31.1411424,19.8788455 C29.8793552,19.2939187 29.4663136,17.8713189 28.6387683,16.8567237 C29.5620808,16.9289369 29.8084436,18.0843478 30.6125954,18.6620533 C31.7998158,19.5286115 33.3905742,19.8174642 35.2181918,20.0348259 C33.0871897,19.4845615 31.9131281,17.9890264 31.0468373,16.1887517 C32.4899242,17.0423116 34.0667927,18.9920675 36.5523527,19.3083613 L36.5677047,19.3083613 Z" id="Shape"></path>
                    <path d="M36.7073347,16.973709 C39.0072087,17.334775 39.7046276,19.3567441 41.0205123,20.6565815 C38.9216762,20.0752653 37.6489233,18.7032148 36.6985621,16.973709 L36.7073347,16.973709 Z" id="Shape"></path>
                    <path d="M14.8782696,17.3860463 C15.4470242,22.0676271 11.6470417,23.6252655 10.5680162,27.1348262 C10.223693,22.67494 13.8167893,20.9418235 14.9133599,17.3860463 L14.8782696,17.3860463 Z" id="Shape"></path>
                    <path d="M46.8564609,22.1918338 C47.5122101,23.2028183 48.318555,25.7302798 46.8564609,26.4524116 C46.9259104,24.7691223 47.152535,23.7581377 46.8601162,22.1918338 L46.8564609,22.1918338 Z" id="Shape"></path>
                    <path d="M24.749598,30.4335245 C23.6983523,30.1215636 22.870076,29.2333414 22.6639208,27.8230179 C22.4307168,26.2271065 22.9285598,23.2483126 24.3321701,23.4288456 C25.7949953,23.6137114 26.7563222,29.9684716 24.7824951,30.4335245 L24.749598,30.4335245 Z" id="Shape"></path>
                    <path d="M28.5035246,24.252798 C29.861079,25.1193563 30.4773517,29.5243605 28.7959435,30.6075583 C26.4565929,30.1851112 26.6832175,25.0579751 28.5108351,24.252798 L28.5035246,24.252798 Z" id="Shape"></path>
                    <path d="M46.7168309,29.8839822 C47.5670387,30.3172613 48.0327156,31.0393931 48.5444486,31.8337382 C47.510748,31.5571617 46.9332209,30.907243 46.7139067,29.8839822 L46.7168309,29.8839822 Z" id="Shape"></path>
                    <path d="M45.3271105,30.5707296 C46.0435366,30.1410611 46.4236811,31.2206482 47.0085187,31.3650746 C46.3418038,31.7738012 45.8366503,30.8350298 45.3249173,30.5707296 L45.3271105,30.5707296 Z" id="Shape"></path>
                    <path d="M40.3216313,30.7086567 C40.8991585,30.8530831 40.9795737,31.4307886 41.1257831,31.9362809 C40.4451783,31.9904408 40.2806927,31.4127353 40.3537974,30.7086567 L40.3216313,30.7086567 Z" id="Shape"></path>
                    <path d="M44.2144569,30.7086567 C44.713031,30.9252963 44.9455039,31.575215 44.7992945,32.0807073 C44.1654767,32.062654 44.2283468,31.3405221 44.2283468,30.7086567 L44.2144569,30.7086567 Z" id="Shape"></path>
                    <path d="M51.1667144,30.7086567 C51.704765,30.7808699 52.0439708,31.0697227 51.9708661,31.6474281 C51.3311999,31.701588 51.3195032,31.1238826 51.1732938,30.7086567 L51.1667144,30.7086567 Z" id="Shape"></path>
                    <path d="M36.4288057,30.8451397 C37.3616218,30.989566 37.4522716,31.9283374 37.8177951,32.6504693 C36.8922896,32.4959331 36.6254574,31.701588 36.4061433,30.8451397 L36.4288057,30.8451397 Z" id="Shape"></path>
                    <path d="M38.374853,30.8451397 C38.7104036,30.7895355 38.6672718,31.0617792 39.1059001,30.989566 C38.9531112,31.5672715 39.6907377,31.7116979 39.3983189,32.0879286 C38.7878946,31.9182276 38.453075,31.5571617 38.3799703,30.8451397 L38.374853,30.8451397 Z" id="Shape"></path>
                    <path d="M48.9421382,31.1202719 C49.8588712,30.8480282 50.7697558,33.4310938 49.6731852,34.0087993 C49.5664523,32.856999 49.2725714,31.9904408 48.9070479,31.1202719 L48.9421382,31.1202719 Z" id="Shape"></path>
                    <path d="M42.4073086,31.1202719 C42.7655216,31.3369115 43.2114603,31.4091246 43.2114603,31.9146169 C42.7911083,31.8460144 42.5469385,31.5571617 42.4007291,31.1202719 L42.4073086,31.1202719 Z" id="Shape"></path>
                    <path d="M35.1772532,31.3939599 L35.469672,31.3939599 C36.1575873,31.3939599 36.0545097,32.1883049 36.4200332,32.4771576 C35.7123796,33.0014254 35.3826774,31.8460144 35.1633633,31.3939599 L35.1772532,31.3939599 Z" id="Shape"></path>
                    <path d="M50.0547918,31.3939599 C51.2105772,31.3058598 51.0782577,32.4771576 51.7362,32.9104367 C50.7916872,33.2902781 50.2960373,32.1348671 50.0767232,31.3939599 L50.0547918,31.3939599 Z" id="Shape"></path>
                    <path d="M33.3693738,31.6690921 C33.80654,31.6690921 34.0273162,31.9579448 34.1004209,32.3912239 C33.5177764,32.4237199 33.4819551,32.062654 33.3357457,31.6690921 L33.3693738,31.6690921 Z" id="Shape"></path>
                    <path d="M46.5793941,32.4937667 C44.931614,41.089302 38.5261797,49.6104578 27.1218457,48.8161128 C20.0197236,48.3142312 14.1194428,45.5015276 11.4109135,40.163529 C10.2755974,40.3361185 8.74844009,41.0033683 7.93405368,40.3007341 C9.0203896,37.819489 12.4226826,37.8281546 14.8870422,37.2793344 C24.9908435,35.0233945 34.3592115,32.4237199 46.5676973,32.4937667 L46.5793941,32.4937667 Z M37.6796273,33.5921292 C38.4406472,34.9641797 39.6534543,35.8307379 41.9928049,35.6863116 C42.7304313,35.1642102 44.0170742,33.7683294 43.6603232,33.0772492 C41.6930756,33.2180649 39.6227503,33.3624913 37.6489233,33.5921292 L37.6796273,33.5921292 Z M29.8932451,34.9511813 C30.5628842,38.4174142 35.8147262,36.9731505 35.8724789,33.8528188 C33.8840309,34.2290495 31.8736516,34.5901154 29.8998245,34.9649018 L29.8932451,34.9511813 Z M21.2734693,36.9009373 C21.6521516,39.9338911 28.5108351,38.2729878 27.5312321,35.3902375 C25.3790295,35.8177396 23.320401,36.395445 21.2734693,36.887939 L21.2734693,36.9009373 Z M13.2085582,39.7894647 C15.1122047,41.2337284 18.2527828,40.2227438 18.4925663,38.0036327 C16.6386309,38.4896274 14.8402552,39.0673329 13.2319517,39.7728557 L13.2085582,39.7894647 Z" id="Shape"></path>
                    <path d="M51.8612091,33.5921292 C53.0864439,34.0254083 53.1770937,36.7695093 51.8612091,37.1305753 C51.87583,35.8177396 52.1236549,34.806755 51.8312361,33.5921292 L51.8612091,33.5921292 Z" id="Shape"></path>
                    <path d="M53.1127616,34.1416715 C53.9022924,34.5749507 54.3555416,36.3802803 53.8438087,36.8857726 C52.8985648,36.6842978 52.854702,35.0233945 53.1471208,34.1416715 L53.1127616,34.1416715 Z" id="Shape"></path>
                    <path id="Shape" d="M19.187792,34.5540088 C19.5087217,34.6984352 19.4802108,35.2039275 19.4802108,35.6372066 C18.9523949,35.6733132 18.9341187,34.806755 19.1534328,34.5540088 L19.187792,34.5540088 Z"></path>
                    <path d="M20.1608157,34.5540088 C20.4554276,34.6984352 20.818758,35.1317143 20.5994439,35.3483539 C20.0804005,35.4566736 20.1768987,34.9511813 20.1768987,34.5540088 L20.1608157,34.5540088 Z" id="Shape"></path>
                    <path d="M15.9894612,34.8284189 C16.515815,35.1172717 16.5742988,35.9116167 16.7936129,36.4893222 C16.2548312,36.756511 15.8637211,35.7455264 16.0099305,34.8284189 L15.9894612,34.8284189 Z" id="Shape"></path>
                    <path d="M49.7762629,34.8284189 C50.6345121,35.3339112 51.3845664,35.9838299 51.6038805,37.1392408 C50.2382846,37.1175769 49.9305138,36.0343791 49.7843044,34.8284189 L49.7762629,34.8284189 Z" id="Shape"></path>
                    <path d="M17.5195426,34.9649018 C18.1175391,35.037115 18.177485,35.9758864 17.8119615,36.192526 C17.4413206,36.0343791 17.5451293,35.4566736 17.5451293,34.9649018 L17.5195426,34.9649018 Z" id="Shape"></path>
                    <path id="Shape" d="M15.0164375,35.2400341 C15.582999,35.4566736 15.1626469,36.5398714 15.1626469,37.0453637 C14.573423,36.6842978 15.132674,35.9621659 14.9864646,35.2400341 L15.0164375,35.2400341 Z"></path>
                    <path d="M12.3751645,35.5144442 C12.5476916,36.0199365 12.8137928,37.0670277 12.2362656,37.1753474 C11.5980615,36.8287241 12.2084858,35.8899527 12.3546952,35.5144442 L12.3751645,35.5144442 Z" id="Shape"></path>
                    <path d="M13.625986,35.6523714 C14.0938562,35.7245846 14.3570331,36.5189296 14.0646143,36.8799955 C13.3730438,36.9009373 13.4512658,36.1065923 13.5974752,35.6523714 L13.625986,35.6523714 Z" id="Shape"></path>
                    <path d="M9.87205942,35.9275036 C10.5409675,36.3607827 10.0182688,37.8332095 9.31573261,37.8772596 C8.84859354,37.0453637 9.5036117,36.3232319 9.86913523,35.9275036 L9.87205942,35.9275036 Z" id="Shape"></path>
                    <path d="M10.845083,35.9275036 C11.3780163,36.07193 11.2837113,37.7487201 10.5672852,37.5884068 C10.4685938,36.8287241 10.673287,36.395445 10.8194964,35.9275036 L10.845083,35.9275036 Z" id="Shape"></path>
                    <path d="M8.48160792,36.3391188 C8.85809715,36.9890374 8.77402674,38.1047311 8.34344003,38.6499407 C7.4435211,38.2729878 8.33393641,37.0453637 8.48014583,36.3391188 L8.48160792,36.3391188 Z" id="Shape"></path>
                    <path d="M6.95225748,37.3002762 C7.38869257,38.0224081 7.1715716,39.8024631 6.25703173,40.0443773 C5.86884575,38.9951197 6.57942349,38.0563483 6.94494701,37.3002762 L6.95225748,37.3002762 Z" id="Shape"></path>
                    <path d="M49.0810371,39.0861083 C50.3720662,39.3027478 51.7128065,40.6747984 51.0548642,41.9746357 C49.7916148,41.5947943 49.4918856,40.294957 49.0532573,39.0861083 L49.0810371,39.0861083 Z" id="Shape"></path>
                    <path d="M6.39593067,40.4596031 C6.4522213,40.7903394 6.1415263,40.7578435 6.25703173,41.1095217 C5.77600277,41.2185636 5.67000095,40.957874 5.42290705,40.8351116 C5.4967428,40.5115966 6.06769055,40.5838097 6.36010937,40.4596031 L6.39593067,40.4596031 Z" id="Shape"></path>
                    <path d="M47.5516867,40.4596031 C48.3872735,40.8928822 49.1599902,41.3261613 49.3793043,42.409359 C48.08462,42.3891394 47.883582,41.3781548 47.5180585,40.4596031 L47.5516867,40.4596031 Z" id="Shape"></path>
                    <path d="M7.23005536,41.5586877 C7.98449592,41.8475405 8.25352124,43.6528701 7.52247418,44.1583624 C6.77241991,43.9778294 6.7987376,42.0280734 7.23736583,41.5586877 L7.23005536,41.5586877 Z" id="Shape"></path>
                    <path d="M46.9953599,42.7942553 C47.6255224,42.3602541 48.2381399,43.0831081 48.6767681,43.3719608 C48.022481,43.7611899 47.2987444,43.1112712 47.0063256,42.7942553 L46.9953599,42.7942553 Z" id="Shape"></path>
                    <path d="M45.8841683,44.0298229 C46.9536902,43.6268733 47.4193672,45.0408075 47.1269483,46.1240053 C46.3900529,45.7109458 46.640802,44.4111085 45.909755,44.0298229 L45.8841683,44.0298229 Z" id="Shape"></path>
                    <path d="M8.89903579,44.5793652 C9.4166171,44.7960048 9.70318755,46.9024634 8.76013685,46.8901872 C8.47722164,46.2886513 8.55325053,45.0610272 8.91877406,44.5793652 L8.89903579,44.5793652 Z" id="Shape"></path>
                    <path d="M10.7069152,45.1289076 C11.1930614,45.7477746 10.7003357,46.6836574 10.4283862,47.2953031 C9.23093115,47.0107832 10.3808682,45.6387327 10.673287,45.1289076 L10.7069152,45.1289076 Z" id="Shape"></path>
                    <path d="M44.4922547,45.1289076 C45.3300347,45.7066131 47.1971288,46.4287449 46.3198724,47.4397295 C45.1443487,47.2274227 44.9593938,46.0720118 44.5207656,45.1289076 L44.4922547,45.1289076 Z" id="Shape"></path>
                    <path d="M41.5724528,48.0131022 C42.3385901,48.4463813 43.8386987,48.8796604 43.4000704,50.1072845 C43.237778,50.0848984 43.1522455,50.1376141 43.1215415,50.2444896 C42.1850702,49.8993106 41.8889962,48.9605392 41.5965774,48.0131022 L41.5724528,48.0131022 Z" id="Shape"></path>
                    <path d="M38.9311798,48.9757039 C39.8457197,49.1923435 39.8084363,50.4199676 40.7587974,50.6366072 C40.5065862,50.9651772 39.6695373,50.7138753 39.3683459,50.6366072 C39.1183279,50.1881633 38.8917033,49.7548842 38.964808,48.9757039 L38.9311798,48.9757039 Z" id="Shape"></path>
                    <path d="M15.9894612,49.112909 C16.608658,49.4739749 16.7936129,51.3515177 16.28188,52.0014364 C15.2313654,51.7046402 15.9368258,49.9715237 16.0099305,49.112909 L15.9894612,49.112909 Z" id="Shape"></path>
                    <path d="M35.3168832,54.880576 C34.1669462,54.4617396 33.7619461,53.3034401 33.3693738,52.1335865 C34.4644823,52.4989852 35.4557821,53.7266093 35.3095727,54.880576 L35.3168832,54.880576 Z" id="Shape"></path>
                    <path d="M21.1338393,52.2715137 C21.8049405,52.7047928 21.206944,53.8009889 20.8553104,54.0768433 C20.7441912,54.003908 20.6301479,53.933139 20.4393446,53.9389161 C20.0219167,53.221117 20.834841,52.7156248 21.1272599,52.2715137 L21.1338393,52.2715137 Z" id="Shape"></path>
                    <path d="M25.3059248,52.5452016 C25.7562498,52.8340544 26.0369719,53.2673335 25.9638672,54.0616785 C25.6290476,54.0053522 25.6619447,54.3122583 25.2693725,54.1988836 C24.9645258,53.7266093 25.0018092,53.0766907 25.2942281,52.5452016 L25.3059248,52.5452016 Z" id="Shape"></path>
                    <path d="M28.9209525,52.5452016 C30.108904,52.9062676 30.6023607,53.9894653 30.7485701,55.433729 C29.8252577,55.3875126 28.7301492,53.6543962 28.9494633,52.5452016 L28.9209525,52.5452016 Z" id="Shape"></path>
                    <path d="M37.9574251,16.4234446 C42.0988067,17.4344292 46.2913615,20.2507434 45.8527333,25.7389454 C44.4447367,21.4473158 41.3041585,18.8476412 37.9413421,16.4234446 L37.9574251,16.4234446 Z" id="Shape"></path>
                    <path d="M47.5516867,22.7420982 C49.0510642,25.9916915 53.180749,28.8080057 53.2538537,33.4296495 C52.6894854,31.3607418 50.9057306,29.8550969 49.7777249,28.3487299 C48.6453331,26.8633047 48.3222103,24.7691223 47.5180585,22.7420982 L47.5516867,22.7420982 Z" id="Shape"></path>
                </g>
            </g>
        </g>
    </g>
</svg>